<svg width="56" height="50" viewBox="0 0 56 50" fill="none" xmlns="http://www.w3.org/2000/svg">
<ellipse cx="28" cy="24.9225" rx="28" ry="24.0948" fill="#2766A9"/>
<path d="M32.8747 27.857C28.9809 27.857 21.208 29.8085 21.208 33.7262V36.6609H44.5413V33.7262C44.5413 29.8085 36.7684 27.857 32.8747 27.857ZM19.7497 21.9877V17.5858H16.833V21.9877H12.458V24.9223H16.833V29.3243H19.7497V24.9223H24.1247V21.9877M32.8747 24.9223C34.4218 24.9223 35.9055 24.304 36.9995 23.2033C38.0934 22.1026 38.708 20.6097 38.708 19.0531C38.708 17.4965 38.0934 16.0036 36.9995 14.9029C35.9055 13.8022 34.4218 13.1838 32.8747 13.1838C31.3276 13.1838 29.8438 13.8022 28.7499 14.9029C27.6559 16.0036 27.0413 17.4965 27.0413 19.0531C27.0413 20.6097 27.6559 22.1026 28.7499 23.2033C29.8438 24.304 31.3276 24.9223 32.8747 24.9223Z" fill="#1B2023"/>
</svg>
