<svg width="53" height="30" viewBox="0 0 53 30" fill="none" xmlns="http://www.w3.org/2000/svg">
<path d="M25.88 16.98L27.44 12.49H28.65L26.55 18H25.19L23.1 12.49H24.32L25.88 16.98ZM31.9017 18.09C31.3817 18.09 30.9117 17.9733 30.4917 17.74C30.0717 17.5 29.7417 17.1667 29.5017 16.74C29.2617 16.3067 29.1417 15.8067 29.1417 15.24C29.1417 14.68 29.2651 14.1833 29.5117 13.75C29.7584 13.3167 30.0951 12.9833 30.5217 12.75C30.9484 12.5167 31.4251 12.4 31.9517 12.4C32.4784 12.4 32.9551 12.5167 33.3817 12.75C33.8084 12.9833 34.1451 13.3167 34.3917 13.75C34.6384 14.1833 34.7617 14.68 34.7617 15.24C34.7617 15.8 34.6351 16.2967 34.3817 16.73C34.1284 17.1633 33.7817 17.5 33.3417 17.74C32.9084 17.9733 32.4284 18.09 31.9017 18.09ZM31.9017 17.1C32.1951 17.1 32.4684 17.03 32.7217 16.89C32.9817 16.75 33.1917 16.54 33.3517 16.26C33.5117 15.98 33.5917 15.64 33.5917 15.24C33.5917 14.84 33.5151 14.5033 33.3617 14.23C33.2084 13.95 33.0051 13.74 32.7517 13.6C32.4984 13.46 32.2251 13.39 31.9317 13.39C31.6384 13.39 31.3651 13.46 31.1117 13.6C30.8651 13.74 30.6684 13.95 30.5217 14.23C30.3751 14.5033 30.3017 14.84 30.3017 15.24C30.3017 15.8333 30.4517 16.2933 30.7517 16.62C31.0584 16.94 31.4417 17.1 31.9017 17.1ZM37.0287 10.6V18H35.8887V10.6H37.0287ZM39.8554 13.42V16.47C39.8554 16.6767 39.9021 16.8267 39.9954 16.92C40.0954 17.0067 40.2621 17.05 40.4954 17.05H41.1954V18H40.2954C39.7821 18 39.3887 17.88 39.1154 17.64C38.8421 17.4 38.7054 17.01 38.7054 16.47V13.42H38.0554V12.49H38.7054V11.12H39.8554V12.49H41.1954V13.42H39.8554ZM41.8661 15.22C41.8661 14.6667 41.9794 14.1767 42.2061 13.75C42.4394 13.3233 42.7528 12.9933 43.1461 12.76C43.5461 12.52 43.9861 12.4 44.4661 12.4C44.8994 12.4 45.2761 12.4867 45.5961 12.66C45.9228 12.8267 46.1828 13.0367 46.3761 13.29V12.49H47.5261V18H46.3761V17.18C46.1828 17.44 45.9194 17.6567 45.5861 17.83C45.2528 18.0033 44.8728 18.09 44.4461 18.09C43.9728 18.09 43.5394 17.97 43.1461 17.73C42.7528 17.4833 42.4394 17.1433 42.2061 16.71C41.9794 16.27 41.8661 15.7733 41.8661 15.22ZM46.3761 15.24C46.3761 14.86 46.2961 14.53 46.1361 14.25C45.9828 13.97 45.7794 13.7567 45.5261 13.61C45.2728 13.4633 44.9994 13.39 44.7061 13.39C44.4128 13.39 44.1394 13.4633 43.8861 13.61C43.6328 13.75 43.4261 13.96 43.2661 14.24C43.1128 14.5133 43.0361 14.84 43.0361 15.22C43.0361 15.6 43.1128 15.9333 43.2661 16.22C43.4261 16.5067 43.6328 16.7267 43.8861 16.88C44.1461 17.0267 44.4194 17.1 44.7061 17.1C44.9994 17.1 45.2728 17.0267 45.5261 16.88C45.7794 16.7333 45.9828 16.52 46.1361 16.24C46.2961 15.9533 46.3761 15.62 46.3761 15.24ZM50.1634 13.29C50.3301 13.01 50.5501 12.7933 50.8234 12.64C51.1034 12.48 51.4334 12.4 51.8134 12.4V13.58H51.5234C51.0768 13.58 50.7368 13.6933 50.5034 13.92C50.2768 14.1467 50.1634 14.54 50.1634 15.1V18H49.0234V12.49H50.1634V13.29Z" fill="#1B2023"/>
<path d="M23 6.77L20.7443 5L8 15L20.7443 25L23 23.23L12.5115 15L23 6.77Z" fill="#1B2023"/>
</svg>
