<svg width="22" height="17" viewBox="0 0 22 17" fill="none" xmlns="http://www.w3.org/2000/svg">
<path d="M17.8 10.2C19.0673 11.1469 20.2 13.531 20.2 15C20.2 15.4576 19.8661 15.8286 19.4542 15.8286H19M14.2 6.31878C15.0198 5.84453 15.5714 4.95811 15.5714 3.94287C15.5714 2.92763 15.0198 2.04121 14.2 1.56696M1.74577 15.8286H14.8828C15.2947 15.8286 15.6286 15.4576 15.6286 15C15.6286 12.1233 13.2253 9.7914 8.31428 9.7914C3.40327 9.7914 1 12.1233 1 15C1 15.4576 1.33389 15.8286 1.74577 15.8286ZM11.0571 3.94287C11.0571 5.45771 9.82912 6.68573 8.31428 6.68573C6.79945 6.68573 5.57143 5.45771 5.57143 3.94287C5.57143 2.42803 6.79945 1.20001 8.31428 1.20001C9.82912 1.20001 11.0571 2.42803 11.0571 3.94287Z" stroke="#A5CEE0" stroke-width="2" stroke-linecap="round"/>
</svg>
