<svg width="20" height="20" viewBox="0 0 20 20" fill="none" xmlns="http://www.w3.org/2000/svg">
<path d="M12.6471 5.86528V3.76528C12.6471 3.20833 12.424 2.67419 12.0268 2.28036C11.6297 1.88653 11.091 1.66528 10.5294 1.66528H3.11765C2.55601 1.66528 2.01738 1.88653 1.62024 2.28036C1.22311 2.67419 1 3.20833 1 3.76528V16.3653C1 16.9222 1.22311 17.4564 1.62024 17.8502C2.01738 18.244 2.55601 18.4653 3.11765 18.4653H10.5294C11.091 18.4653 11.6297 18.244 12.0268 17.8502C12.424 17.4564 12.6471 16.9222 12.6471 16.3653V14.2653M6.29412 10.0653H19M19 10.0653L15.8235 6.91528M19 10.0653L15.8235 13.2153" stroke="#A5CEE0" stroke-width="2" stroke-linecap="round" stroke-linejoin="round"/>
</svg>
