<svg width="48" height="43" viewBox="0 0 48 43" fill="none" xmlns="http://www.w3.org/2000/svg">
<path d="M31.1292 27.8108L46.1938 41.2162M18.5754 32.2793C16.2674 32.2793 13.9819 31.8748 11.8496 31.0888C9.71723 30.3028 7.77974 29.1508 6.14771 27.6985C4.51569 26.2463 3.22109 24.5222 2.33785 22.6247C1.4546 20.7272 1 18.6935 1 16.6396C1 14.5858 1.4546 12.5521 2.33785 10.6546C3.22109 8.75712 4.51569 7.03302 6.14771 5.58074C7.77974 4.12847 9.71723 2.97646 11.8496 2.1905C13.9819 1.40453 16.2674 1 18.5754 1C23.2367 1 27.707 2.64774 31.0031 5.58074C34.2991 8.51375 36.1508 12.4918 36.1508 16.6396C36.1508 20.7875 34.2991 24.7655 31.0031 27.6985C27.707 30.6315 23.2367 32.2793 18.5754 32.2793Z" stroke="black" stroke-width="2" stroke-linecap="round" stroke-linejoin="round"/>
</svg>
