<svg width="24" height="24" viewBox="0 0 24 24" fill="none" xmlns="http://www.w3.org/2000/svg">
<path d="M10.6 2.93182H4.6C2.61178 2.93182 1 4.54359 1 6.53182V18.5319C1 20.5202 2.61178 22.1319 4.6 22.1319H16.6C18.5882 22.1319 20.2 20.5202 20.2 18.5319L20.2 12.5319M7 16.1318L11.366 15.2521C11.5978 15.2054 11.8106 15.0913 11.9777 14.924L21.7514 5.145C22.22 4.67614 22.2197 3.91615 21.7507 3.44769L19.6803 1.37962C19.2115 0.91135 18.4519 0.911669 17.9835 1.38033L8.20876 11.1604C8.04195 11.3273 7.92805 11.5397 7.8813 11.771L7 16.1318Z" stroke="#A5CEE0" stroke-width="2" stroke-linecap="round" stroke-linejoin="round"/>
</svg>
