<svg width="35" height="17" viewBox="0 0 35 17" fill="none" xmlns="http://www.w3.org/2000/svg">
<path d="M26.6591 14.25H8.625C5.15932 14.25 2.35227 11.565 2.35227 8.25C2.35227 4.935 5.15932 2.25 8.625 2.25H28.2273C29.267 2.25 30.2642 2.64509 30.9995 3.34835C31.7347 4.05161 32.1477 5.00544 32.1477 6C32.1477 6.99456 31.7347 7.94839 30.9995 8.65165C30.2642 9.35491 29.267 9.75 28.2273 9.75H11.7614C10.8989 9.75 10.1932 9.075 10.1932 8.25C10.1932 7.425 10.8989 6.75 11.7614 6.75H26.6591V4.5H11.7614C10.7216 4.5 9.72441 4.89509 8.98918 5.59835C8.25396 6.30161 7.84091 7.25544 7.84091 8.25C7.84091 9.24456 8.25396 10.1984 8.98918 10.9017C9.72441 11.6049 10.7216 12 11.7614 12H28.2273C31.693 12 34.5 9.315 34.5 6C34.5 2.685 31.693 0 28.2273 0H8.625C3.85773 0 0 3.69 0 8.25C0 12.81 3.85773 16.5 8.625 16.5H26.6591V14.25Z" fill="#1F5287"/>
</svg>
