<svg width="25" height="23" viewBox="0 0 25 23" fill="none" xmlns="http://www.w3.org/2000/svg">
<path d="M12.4882 0.25C6.00225 0.25 0.75 5.29 0.75 11.5C0.75 17.71 6.00225 22.75 12.4882 22.75C18.986 22.75 24.25 17.71 24.25 11.5C24.25 5.29 18.986 0.25 12.4882 0.25ZM8.3875 7C9.36275 7 10.15 7.75375 10.15 8.6875C10.15 9.62125 9.36275 10.375 8.3875 10.375C7.41225 10.375 6.625 9.62125 6.625 8.6875C6.625 7.75375 7.41225 7 8.3875 7ZM12.5 18.25C9.821 18.25 7.5415 16.3825 6.625 13.75H18.375C17.4585 16.3825 15.179 18.25 12.5 18.25ZM16.6125 10.375C15.6372 10.375 14.85 9.62125 14.85 8.6875C14.85 7.75375 15.6372 7 16.6125 7C17.5877 7 18.375 7.75375 18.375 8.6875C18.375 9.62125 17.5877 10.375 16.6125 10.375Z" fill="#1F5287"/>
</svg>
