<svg width="22" height="21" viewBox="0 0 22 21" fill="none" xmlns="http://www.w3.org/2000/svg">
<path d="M18.0667 8.06523V3.26523C18.0667 2.08702 17.1115 1.1319 15.9333 1.1319H3.13333C1.95513 1.1319 1 2.08702 1 3.26523V11.6131C1 12.7913 1.95513 13.7464 3.13333 13.7464H4.8029V18.1986L9.25507 13.7464H9.53333M15.0406 16.4826L17.8232 19.2652V16.4826H18.0667C19.2449 16.4826 20.2 15.5275 20.2 14.3493V10.7319C20.2 9.55369 19.2449 8.59856 18.0667 8.59856H11.6667C10.4885 8.59856 9.53333 9.55369 9.53333 10.7319V14.3493C9.53333 15.5275 10.4885 16.4826 11.6667 16.4826H15.0406Z" stroke="#A5CEE0" stroke-width="2" stroke-linecap="round" stroke-linejoin="round"/>
</svg>
