<svg width="23" height="23" viewBox="0 0 23 23" fill="none" xmlns="http://www.w3.org/2000/svg">
<path d="M10.56 2.14252C10.7666 1.72398 11.3634 1.72398 11.57 2.14252L14.244 7.56065C14.326 7.72685 14.4846 7.84205 14.668 7.8687L20.6473 8.73754C21.1092 8.80466 21.2936 9.37228 20.9594 9.69807L16.6327 13.9155C16.5 14.0449 16.4394 14.2313 16.4708 14.4139L17.4921 20.369C17.571 20.8291 17.0882 21.1799 16.6751 20.9627L11.3271 18.1511C11.163 18.0648 10.967 18.0648 10.803 18.1511L5.45496 20.9627C5.04183 21.1799 4.55898 20.8291 4.63788 20.369L5.65926 14.4139C5.69059 14.2313 5.63003 14.0449 5.4973 13.9155L1.17067 9.69807C0.836446 9.37228 1.02088 8.80466 1.48277 8.73754L7.46203 7.8687C7.64544 7.84205 7.804 7.72685 7.88603 7.56065L10.56 2.14252Z" stroke="#A5CEE0" stroke-width="2" stroke-linejoin="round"/>
</svg>
