<svg width="37" height="37" viewBox="0 0 37 37" fill="none" xmlns="http://www.w3.org/2000/svg">
<path d="M4.09902 36.9871C2.97179 36.9871 2.00647 36.5893 1.20307 35.7936C0.399658 34.998 -0.00136286 34.0426 3.47964e-06 32.9276V4.51073C3.47964e-06 3.39435 0.401707 2.43833 1.20512 1.64265C2.00852 0.846981 2.97316 0.449822 4.09902 0.451175H32.7922C33.9194 0.451175 34.8847 0.849011 35.6881 1.64468C36.4915 2.44036 36.8925 3.3957 36.8912 4.51073V32.9276C36.8912 34.044 36.4895 35 35.6861 35.7957C34.8827 36.5913 33.918 36.9885 32.7922 36.9871H4.09902ZM4.09902 32.9276H32.7922V4.51073H4.09902V32.9276ZM6.14853 28.868H30.7427L23.057 18.7192L16.9085 26.8383L12.2971 20.7489L6.14853 28.868Z" fill="#2766A9"/>
</svg>
