<svg width="28" height="26" viewBox="0 0 28 26" fill="none" xmlns="http://www.w3.org/2000/svg">
<path d="M18.3333 17L27 25M11.1111 19.6667C9.7833 19.6667 8.46849 19.4253 7.24176 18.9562C6.01502 18.4872 4.90038 17.7997 3.96148 16.933C3.02257 16.0663 2.27779 15.0374 1.76966 13.905C1.26153 12.7727 1 11.559 1 10.3333C1 9.10766 1.26153 7.89399 1.76966 6.76162C2.27779 5.62925 3.02257 4.60035 3.96148 3.73367C4.90038 2.86699 6.01502 2.1795 7.24176 1.71046C8.46849 1.24141 9.7833 1 11.1111 1C13.7927 1 16.3645 1.98333 18.2607 3.73367C20.1569 5.48401 21.2222 7.85798 21.2222 10.3333C21.2222 12.8087 20.1569 15.1827 18.2607 16.933C16.3645 18.6833 13.7927 19.6667 11.1111 19.6667Z" stroke="#1B2023" stroke-width="1.78951" stroke-linecap="round" stroke-linejoin="round"/>
</svg>
