<svg width="50" height="50" viewBox="0 0 50 50" fill="none" xmlns="http://www.w3.org/2000/svg">
<rect width="50" height="50" fill="#E2E2E"/>
<g filter="url(#filter0_d_1077_327)">
<path d="M26 33.3125C26 30.5625 27.65 28.0875 30.05 26.85C28.1 26.1625 25.7 25.75 23 25.75C16.4 25.75 11 28.225 11 31.25V34H26V33.3125ZM34.25 28.5C31.4 28.5 29 30.7 29 33.3125C29 35.925 31.4 38.125 34.25 38.125C37.1 38.125 39.5 35.925 39.5 33.3125C39.5 30.7 37.1 28.5 34.25 28.5ZM29 17.5C29 20.525 26.3 23 23 23C19.7 23 17 20.525 17 17.5C17 14.475 19.7 12 23 12C26.3 12 29 14.475 29 17.5Z" fill="#1B2023"/>
</g>
<defs>
<filter id="filter0_d_1077_327" x="7" y="12" width="36.5" height="34.125" filterUnits="userSpaceOnUse" color-interpolation-filters="sRGB">
<feFlood flood-opacity="0" result="BackgroundImageFix"/>
<feColorMatrix in="SourceAlpha" type="matrix" values="0 0 0 0 0 0 0 0 0 0 0 0 0 0 0 0 0 0 127 0" result="hardAlpha"/>
<feOffset dy="4"/>
<feGaussianBlur stdDeviation="2"/>
<feComposite in2="hardAlpha" operator="out"/>
<feColorMatrix type="matrix" values="0 0 0 0 0 0 0 0 0 0 0 0 0 0 0 0 0 0 0.25 0"/>
<feBlend mode="normal" in2="BackgroundImageFix" result="effect1_dropShadow_1077_327"/>
<feBlend mode="normal" in="SourceGraphic" in2="effect1_dropShadow_1077_327" result="shape"/>
</filter>
</defs>
</svg>
