<svg width="22" height="22" viewBox="0 0 22 22" fill="none" xmlns="http://www.w3.org/2000/svg">
<path d="M10.6 20.2L13.2087 15.1913H18.2C19.3046 15.1913 20.2 14.2959 20.2 13.1913V3C20.2 1.89543 19.3046 1 18.2 1H3C1.89543 1 1 1.89543 1 3V13.1913C1 14.2959 1.89543 15.1913 3 15.1913H8.2L10.6 20.2Z" stroke="#A5CEE0" stroke-width="2" stroke-linecap="round" stroke-linejoin="round"/>
<path d="M8.75 11C8.54375 11 8.36713 10.9347 8.22013 10.804C8.07313 10.6733 7.99975 10.5164 8 10.3333V7C8 6.81667 8.0735 6.65967 8.2205 6.529C8.3675 6.39833 8.544 6.33311 8.75 6.33333H9.125V5.66667C9.125 5.20556 9.30788 4.81244 9.67363 4.48733C10.0394 4.16222 10.4815 3.99978 11 4C11.5187 4 11.961 4.16256 12.3267 4.48767C12.6925 4.81278 12.8752 5.20578 12.875 5.66667V6.33333H13.25C13.4562 6.33333 13.6329 6.39867 13.7799 6.52933C13.9269 6.66 14.0002 6.81689 14 7V10.3333C14 10.5167 13.9265 10.6737 13.7795 10.8043C13.6325 10.935 13.456 11.0002 13.25 11H8.75ZM11 9.33333C11.2062 9.33333 11.3829 9.268 11.5299 9.13733C11.6769 9.00667 11.7502 8.84978 11.75 8.66667C11.75 8.48333 11.6765 8.32633 11.5295 8.19567C11.3825 8.065 11.206 7.99978 11 8C10.7938 8 10.6171 8.06533 10.4701 8.196C10.3231 8.32667 10.2498 8.48356 10.25 8.66667C10.25 8.85 10.3235 9.007 10.4705 9.13767C10.6175 9.26833 10.794 9.33356 11 9.33333ZM9.875 6.33333H12.125V5.66667C12.125 5.38889 12.0156 5.15278 11.7969 4.95833C11.5781 4.76389 11.3125 4.66667 11 4.66667C10.6875 4.66667 10.4219 4.76389 10.2031 4.95833C9.98438 5.15278 9.875 5.38889 9.875 5.66667V6.33333Z" fill="#A5CEE0"/>
</svg>
