<svg width="37" height="38" viewBox="0 0 37 38" fill="none" xmlns="http://www.w3.org/2000/svg">
<path d="M5.84211 0.907867H31.1579C32.7073 0.907867 34.1933 1.52337 35.2889 2.61898C36.3845 3.71459 37 5.20055 37 6.74997V32.0658C37 33.6152 36.3845 35.1011 35.2889 36.1968C34.1933 37.2924 32.7073 37.9079 31.1579 37.9079H5.84211C4.29268 37.9079 2.80672 37.2924 1.71111 36.1968C0.615506 35.1011 0 33.6152 0 32.0658V6.74997C0 5.20055 0.615506 3.71459 1.71111 2.61898C2.80672 1.52337 4.29268 0.907867 5.84211 0.907867ZM5.84211 2.85524C4.80916 2.85524 3.81851 3.26557 3.08811 3.99598C2.35771 4.72638 1.94737 5.71702 1.94737 6.74997V29.32L10.3016 20.9463L15.17 25.8147L24.9068 16.0779L35.0526 26.2237V6.74997C35.0526 5.71702 34.6423 4.72638 33.9119 3.99598C33.1815 3.26557 32.1908 2.85524 31.1579 2.85524H5.84211ZM15.17 28.58L10.3016 23.7116L1.94737 32.0658C1.94737 33.0987 2.35771 34.0894 3.08811 34.8198C3.81851 35.5502 4.80916 35.9605 5.84211 35.9605H31.1579C32.1908 35.9605 33.1815 35.5502 33.9119 34.8198C34.6423 34.0894 35.0526 33.0987 35.0526 32.0658V28.9694L24.9068 18.8431L15.17 28.58ZM10.7105 6.74997C12.0017 6.74997 13.24 7.26289 14.153 8.1759C15.066 9.08891 15.5789 10.3272 15.5789 11.6184C15.5789 12.9096 15.066 14.1479 14.153 15.0609C13.24 15.9739 12.0017 16.4868 10.7105 16.4868C9.41934 16.4868 8.18104 15.9739 7.26803 15.0609C6.35503 14.1479 5.84211 12.9096 5.84211 11.6184C5.84211 10.3272 6.35503 9.08891 7.26803 8.1759C8.18104 7.26289 9.41934 6.74997 10.7105 6.74997ZM10.7105 8.69734C9.93581 8.69734 9.19283 9.00509 8.64503 9.5529C8.09723 10.1007 7.78947 10.8437 7.78947 11.6184C7.78947 12.3931 8.09723 13.1361 8.64503 13.6839C9.19283 14.2317 9.93581 14.5394 10.7105 14.5394C11.4852 14.5394 12.2282 14.2317 12.776 13.6839C13.3238 13.1361 13.6316 12.3931 13.6316 11.6184C13.6316 10.8437 13.3238 10.1007 12.776 9.5529C12.2282 9.00509 11.4852 8.69734 10.7105 8.69734Z" fill="#2766A9"/>
</svg>
