<svg width="30" height="37" viewBox="0 0 30 37" fill="none" xmlns="http://www.w3.org/2000/svg">
<path d="M29.0248 32.0633V10.3061L18.201 0H4.97195C3.69611 0 2.47252 0.482584 1.57036 1.34159C0.668203 2.20059 0.161377 3.36565 0.161377 4.58047V32.0633C0.161377 33.2781 0.668203 34.4431 1.57036 35.3022C2.47252 36.1612 3.69611 36.6437 4.97195 36.6437H24.2142C25.4901 36.6437 26.7137 36.1612 27.6158 35.3022C28.518 34.4431 29.0248 33.2781 29.0248 32.0633ZM18.201 6.8707C18.201 7.78181 18.5811 8.65561 19.2578 9.29986C19.9344 9.94412 20.8521 10.3061 21.8089 10.3061H26.6195V32.0633C26.6195 32.6707 26.3661 33.2532 25.915 33.6827C25.4639 34.1122 24.8522 34.3535 24.2142 34.3535H4.97195C4.33403 34.3535 3.72223 34.1122 3.27115 33.6827C2.82008 33.2532 2.56666 32.6707 2.56666 32.0633V4.58047C2.56666 3.97306 2.82008 3.39053 3.27115 2.96103C3.72223 2.53153 4.33403 2.29023 4.97195 2.29023H18.201V6.8707Z" fill="#2766A9"/>
<path d="M6.42226 32.2622C5.95345 32.0837 5.57574 31.7388 5.36874 31.3003C4.89971 30.4117 5.05605 29.5231 5.56116 28.7765C6.03741 28.0734 6.82634 27.4757 7.71871 26.9741C8.84904 26.3637 10.0439 25.8685 11.2833 25.4969C12.2459 23.8493 13.0991 22.1458 13.8378 20.3965C13.3961 19.441 13.0498 18.448 12.8035 17.4307C12.5966 16.5146 12.5172 15.6077 12.6928 14.829C12.8732 14.0182 13.3519 13.2899 14.2563 12.9441C14.7181 12.7678 15.2184 12.6693 15.7043 12.7678C15.9487 12.8173 16.1784 12.918 16.3769 13.0626C16.5753 13.2072 16.7375 13.392 16.8516 13.6037C17.0632 13.9793 17.1402 14.419 17.157 14.8359C17.1739 15.2664 17.1282 15.7428 17.044 16.2421C16.842 17.4101 16.3946 18.8392 15.7932 20.3507C16.4568 21.702 17.2457 22.9942 18.1504 24.2121C19.221 24.1316 20.2978 24.17 21.3591 24.3266C22.2346 24.4777 23.1246 24.7732 23.6682 25.3915C23.9568 25.7213 24.1324 26.1244 24.1492 26.5779C24.166 27.0176 24.0362 27.4528 23.8173 27.8673C23.6277 28.2514 23.3337 28.5804 22.9658 28.82C22.6021 29.0459 22.1728 29.1565 21.7391 29.1361C20.943 29.104 20.1661 28.6872 19.495 28.181C18.679 27.5386 17.9437 26.8085 17.3038 26.0053C15.6772 26.1811 14.0699 26.4922 12.5004 26.9352C11.7817 28.1489 10.9612 29.3054 10.047 30.3934C9.34468 31.195 8.5822 31.8958 7.81732 32.1958C7.37785 32.3851 6.87937 32.4089 6.42226 32.2622ZM9.73914 27.9085C9.33987 28.0826 8.96945 28.2658 8.63512 28.4536C7.84618 28.8979 7.33386 29.3307 7.0789 29.7063C6.8528 30.0384 6.84799 30.2789 6.98269 30.5331C7.00674 30.5835 7.03079 30.6156 7.04522 30.6339C7.07392 30.6266 7.10205 30.6174 7.12941 30.6064C7.45893 30.4781 7.98329 30.0682 8.65677 29.2964C9.0398 28.8499 9.40097 28.3867 9.73914 27.9085ZM13.6838 24.8625C14.487 24.684 15.2974 24.5366 16.1131 24.4205C15.6752 23.7823 15.2659 23.1267 14.8865 22.4555C14.5092 23.2676 14.1082 24.0695 13.6838 24.8602V24.8625ZM19.5671 25.8931C19.9279 26.2664 20.2791 26.5802 20.6134 26.8321C21.1907 27.2672 21.5924 27.4115 21.8113 27.4184C21.8699 27.4257 21.9293 27.4136 21.9796 27.384C22.0797 27.3088 22.1576 27.2102 22.2057 27.0978C22.2913 26.9583 22.34 26.8011 22.3476 26.6397C22.3463 26.5859 22.324 26.5345 22.2851 26.4954C22.16 26.3534 21.8041 26.1473 21.0392 26.0168C20.5526 25.9393 20.0604 25.8987 19.5671 25.8954V25.8931ZM14.7806 17.8635C14.9831 17.2418 15.1437 16.6084 15.2617 15.9672C15.3362 15.5367 15.3651 15.1817 15.3531 14.9023C15.3537 14.7481 15.3277 14.5949 15.2761 14.4488C15.1558 14.463 15.0383 14.4938 14.9273 14.5404C14.7181 14.6206 14.5473 14.7832 14.4559 15.1885C14.3597 15.6283 14.3837 16.2627 14.5666 17.0711C14.6243 17.3253 14.6964 17.591 14.783 17.8635H14.7806Z" fill="#2766A9"/>
</svg>
