<svg width="23" height="23" viewBox="0 0 23 23" fill="none" xmlns="http://www.w3.org/2000/svg">
<path d="M8.50602 3.92075L9.7771 2.09411C9.96405 1.82545 10.2706 1.66528 10.5979 1.66528H12.403C12.7291 1.66528 13.0347 1.82427 13.2219 2.09128L14.4797 3.8856M8.50602 3.92075C8.15917 4.41559 7.58262 4.65807 6.97068 4.61484M8.50602 3.92075C8.15748 4.41441 7.58262 4.66008 6.97068 4.61484M6.97068 4.61484L4.72158 4.47364C4.40073 4.4535 4.08977 4.58883 3.88585 4.83736L2.74534 6.22736C2.52914 6.49086 2.46204 6.84633 2.5673 7.17051L3.22315 9.19032M3.22315 9.19032C3.31207 9.47866 3.32345 9.78755 3.25981 10.0793M3.22315 9.19032C3.31334 9.47814 3.3243 9.78642 3.25939 10.0823M3.25981 10.0793C3.19533 10.3676 3.0571 10.6398 2.85185 10.8602M3.25981 10.0793L3.25939 10.0823M2.85185 10.8602L1.36575 12.4585C1.13735 12.7042 1.04732 13.048 1.126 13.374L1.52856 15.0422C1.60699 15.3672 1.84263 15.6315 2.15653 15.7466L4.19838 16.4949C4.48328 16.6052 4.72941 16.7844 4.91569 17.0101M2.85185 10.8602C3.05836 10.6416 3.19533 10.3703 3.25939 10.0823M4.91569 17.0101C5.10071 17.2365 5.22672 17.5098 5.27561 17.8056M4.91569 17.0101C5.10239 17.2365 5.22883 17.5091 5.27561 17.8056M4.91569 17.0101L4.91274 17.0069C4.90052 16.9921 4.88745 16.9766 4.87481 16.9623M5.27561 17.8056L5.62327 19.9412C5.67654 20.2684 5.88849 20.5479 6.18917 20.6875L7.8171 21.4434C8.10817 21.5785 8.4464 21.5657 8.72646 21.4091L10.6402 20.3384M10.6402 20.3384C10.9053 20.1894 11.2012 20.1148 11.497 20.1144M10.6402 20.3384C10.7452 20.2786 10.8552 20.231 10.9681 20.1952C11.1397 20.1409 11.3184 20.1141 11.497 20.1144M11.497 20.1144C11.6509 20.1147 11.8047 20.1351 11.9547 20.1753C12.0942 20.2126 12.23 20.2671 12.3585 20.3384M11.497 20.1144C11.7942 20.114 12.0917 20.1887 12.3585 20.3384M12.3585 20.3384L14.362 21.4229C14.6432 21.5752 14.9804 21.5837 15.269 21.4459L16.8891 20.6721C17.1887 20.529 17.3978 20.2465 17.4471 19.9182L17.7585 17.8433M17.7585 17.8433C17.8053 17.5457 17.9296 17.2704 18.1142 17.0421M17.7585 17.8433C17.8036 17.5451 17.9288 17.2702 18.1142 17.0421M18.1142 17.0421C18.2976 16.816 18.5407 16.636 18.824 16.5246M18.1142 17.0421C18.2971 16.8152 18.5395 16.6346 18.824 16.5246M18.824 16.5246L20.8869 15.7161C21.1949 15.5954 21.4233 15.3302 21.4969 15.0077L21.8826 13.3192C21.9561 12.9976 21.8662 12.6604 21.6424 12.4181L20.1473 10.7992M20.1473 10.7992C19.9383 10.5781 19.7924 10.3138 19.7216 10.033M20.1473 10.7992C20.0491 10.6959 19.9648 10.583 19.8961 10.4633C19.8177 10.3273 19.7592 10.1825 19.7216 10.033M19.7216 10.033C19.6521 9.75422 19.6563 9.45877 19.7444 9.17281L20.391 7.10015C20.4914 6.77835 20.4229 6.42763 20.2088 6.16724L19.0964 4.81423C18.8901 4.56334 18.5749 4.42826 18.2509 4.45199L16.0276 4.61484M16.0276 4.61484C15.7233 4.63633 15.4241 4.57836 15.1578 4.45367M16.0276 4.61484C15.7229 4.63756 15.4241 4.57913 15.1578 4.45367M15.1578 4.45367C14.8897 4.32738 14.6546 4.13318 14.4797 3.8856M15.1578 4.45367C14.8893 4.32785 14.6537 4.13416 14.4797 3.8856M3.25939 10.0823L3.26024 10.0779M14.8859 11.6759C14.8859 13.5409 13.34 15.0526 11.4334 15.0526C9.52677 15.0526 7.98089 13.5409 7.98089 11.6759C7.98089 9.81094 9.52677 8.29915 11.4334 8.29915C13.34 8.29915 14.8859 9.81094 14.8859 11.6759Z" stroke="#A5CEE0" stroke-width="2"/>
</svg>
