<svg width="20" height="19" viewBox="0 0 20 19" fill="none" xmlns="http://www.w3.org/2000/svg">
<path d="M9.15512 18.6551C8.9252 18.4252 8.8048 18.1326 8.79393 17.7772C8.78306 17.4219 8.89301 17.1293 9.12377 16.8993L15.269 10.7541H1.25413C0.898794 10.7541 0.600731 10.6337 0.359939 10.3929C0.119146 10.1521 -0.000831744 9.8545 4.33953e-06 9.5C4.33953e-06 9.14466 0.120401 8.8466 0.361193 8.60581C0.601985 8.36502 0.89963 8.24504 1.25413 8.24587H15.269L9.12377 2.10066C8.89384 1.87074 8.7839 1.57811 8.79393 1.22277C8.80396 0.867437 8.92436 0.574807 9.15512 0.344884C9.38504 0.114961 9.67767 0 10.033 0C10.3883 0 10.681 0.114961 10.9109 0.344884L19.1881 8.62211C19.3135 8.72662 19.4026 8.85747 19.4553 9.01465C19.5079 9.17184 19.5338 9.33362 19.533 9.5C19.533 9.66722 19.5071 9.82398 19.4553 9.9703C19.4034 10.1166 19.3144 10.2525 19.1881 10.3779L10.9109 18.6551C10.681 18.885 10.3883 19 10.033 19C9.67767 19 9.38504 18.885 9.15512 18.6551Z" fill="black"/>
</svg>
