<svg width="51" height="59" viewBox="0 0 51 59" fill="none" xmlns="http://www.w3.org/2000/svg">
<path d="M47.9183 23.8636L24.1122 49.8612C19.5373 54.8573 12.3033 55.8336 7.94689 52.0429C3.59048 48.2522 3.76746 41.1353 8.34237 36.1392L34.2186 7.88085C35.5911 6.38193 37.4267 5.39619 39.3214 5.14048C41.2162 4.88476 43.0149 5.38003 44.3219 6.51731C45.6289 7.6546 46.3371 9.34074 46.2908 11.2048C46.2444 13.0689 45.4473 14.9582 44.0747 16.4571L22.3387 40.1941C21.2001 41.4375 19.3816 41.6829 18.2974 40.7396C17.2132 39.7962 17.2577 38.007 18.3962 36.7636L38.0622 15.2873L35.1053 12.7144L15.4394 34.1908C14.0668 35.6897 13.2697 37.579 13.2234 39.4431C13.177 41.3071 13.8852 42.9933 15.1922 44.1306C16.4992 45.2678 18.298 45.7631 20.1927 45.5074C22.0874 45.2517 23.923 44.2659 25.2955 42.767L47.0316 19.03C51.6065 14.0339 51.7834 6.91702 47.427 3.12631C43.0706 -0.664405 35.8367 0.311884 31.2617 5.30796L5.38553 33.5663C-0.907562 40.4388 -1.15078 50.2195 4.84175 55.4339C10.8343 60.6483 20.7759 59.3066 27.069 52.4341L50.8751 26.4364L47.9183 23.8636Z" fill="black" fill-opacity="0.3"/>
</svg>
